HIERARCHY
ROOT Model_Hips
{
	OFFSET 0.000000 96.915077 0.000000
	CHANNELS 6 Xposition Yposition Zposition Xrotation Yrotation Zrotation
	JOINT Model_Spine
	{
		OFFSET 0.000000 11.137703 -1.289900
		CHANNELS 3 Xrotation Yrotation Zrotation
		JOINT Model_Spine1
		{
			OFFSET 0.000000 12.993942 -1.504922
			CHANNELS 3 Xrotation Yrotation Zrotation
			JOINT Model_Spine2
			{
				OFFSET 0.000000 14.850220 -1.719911
				CHANNELS 3 Xrotation Yrotation Zrotation
				JOINT Model_Neck
				{
					OFFSET 0.000000 16.706543 -1.934903
					CHANNELS 3 Xrotation Yrotation Zrotation
					JOINT Model_Head
					{
						OFFSET 0.000000 10.471298 2.002100
						CHANNELS 3 Xrotation Yrotation Zrotation
						JOINT Model_HeadTop_End
						{
							OFFSET 0.000000 20.842606 3.985100
							CHANNELS 3 Xrotation Yrotation Zrotation
							End Site
							{
								OFFSET 0.000000 21.220154 0.000000
							}
						}
					}
				}
				JOINT Model_LeftShoulder
				{
					OFFSET 7.008500 14.768600 -1.919946
					CHANNELS 3 Xrotation Yrotation Zrotation
					JOINT Model_LeftArm
					{
						OFFSET 14.126271 -3.718048 0.029937
						CHANNELS 3 Xrotation Yrotation Zrotation
						JOINT Model_LeftForeArm
						{
							OFFSET 28.282801 0.000000 0.000000
							CHANNELS 3 Xrotation Yrotation Zrotation
							JOINT Model_LeftHand
							{
								OFFSET 26.204689 0.000000 0.000000
								CHANNELS 3 Xrotation Yrotation Zrotation
								End Site
								{
									OFFSET 26.204704 0.000000 0.000000
								}
							}
						}
					}
				}
				JOINT Model_RightShoulder
				{
					OFFSET -7.008500 14.768555 -1.949840
					CHANNELS 3 Xrotation Yrotation Zrotation
					JOINT Model_RightArm
					{
						OFFSET -14.126281 -3.718018 -0.029932
						CHANNELS 3 Xrotation Yrotation Zrotation
						JOINT Model_RightForeArm
						{
							OFFSET -28.283798 0.000000 -0.000001
							CHANNELS 3 Xrotation Yrotation Zrotation
							JOINT Model_RightHand
							{
								OFFSET -26.204193 0.000000 -0.000001
								CHANNELS 3 Xrotation Yrotation Zrotation
								End Site
								{
									OFFSET -26.204208 0.000000 -0.000001
								}
							}
						}
					}
				}
			}
		}
	}
	JOINT Model_LeftUpLeg
	{
		OFFSET 8.327700 -6.193199 -0.402800
		CHANNELS 3 Xrotation Yrotation Zrotation
		JOINT Model_LeftLeg
		{
			OFFSET 0.735802 -42.108742 -0.610721
			CHANNELS 3 Xrotation Yrotation Zrotation
			JOINT Model_LeftFoot
			{
				OFFSET -0.735806 -36.833748 -0.172876
				CHANNELS 3 Xrotation Yrotation Zrotation
				JOINT Model_LeftToeBase
				{
					OFFSET -0.565857 -11.977769 16.297714
					CHANNELS 3 Xrotation Yrotation Zrotation
					JOINT Model_LeftToe_End
					{
						OFFSET -0.111712 -0.312793 7.857784
						CHANNELS 3 Xrotation Yrotation Zrotation
						End Site
						{
							OFFSET -0.111712 -0.312793 7.857784
						}
					}
				}
			}
		}
	}
	JOINT Model_RightUpLeg
	{
		OFFSET -8.327700 -6.193199 -0.516500
		CHANNELS 3 Xrotation Yrotation Zrotation
		JOINT Model_RightLeg
		{
			OFFSET -0.735785 -42.108738 -0.434061
			CHANNELS 3 Xrotation Yrotation Zrotation
			JOINT Model_RightFoot
			{
				OFFSET 0.735776 -36.833748 -0.021630
				CHANNELS 3 Xrotation Yrotation Zrotation
				JOINT Model_RightToeBase
				{
					OFFSET 0.565817 -11.977745 15.903093
					CHANNELS 3 Xrotation Yrotation Zrotation
					JOINT Model_RightToe_End
					{
						OFFSET 0.111702 -0.312791 7.811342
						CHANNELS 3 Xrotation Yrotation Zrotation
						End Site
						{
							OFFSET 0.111702 -0.312791 7.811342
						}
					}
				}
			}
		}
	}
}
MOTION
Frames: 14
Frame Time: 0.033333
13.966813 95.929871 78.020897 -4.186718 23.679287 -1.070777 5.635517 -1.317926 0.150934 0.395309 -0.360999 0.178689 0.395722 -0.363476 0.180085 -1.669525 0.668495 0.688322 -1.669462 0.672822 0.683994 -0.000000 -0.000000 0.000000 0.686086 -2.252385 -18.871399 -3.903050 -15.101823 -57.841341 -0.000005 -14.865432 -0.000002 -0.000001 0.000000 0.000000 1.055858 -2.444065 18.482284 6.668774 -3.903103 63.408655 0.000026 10.383390 0.000000 0.000000 -0.000000 -0.000001 -3.487228 4.268189 -6.413485 22.497414 -7.271536 1.330849 -11.270411 -1.966204 10.334423 -4.068304 -0.000002 0.000002 0.000000 -0.000001 -0.000000 -20.254258 -4.878921 -3.938603 46.446482 -2.955193 -2.119623 -2.978599 -0.395578 6.037578 -11.887834 -0.291668 1.880825 -0.000000 -0.000001 0.000000 
14.909906 95.730713 81.691154 -3.866021 25.252850 -0.856140 5.572699 -1.780731 0.076965 0.396657 -0.483290 0.161492 0.397344 -0.485293 0.163225 -1.723340 0.704695 0.655028 -1.723206 0.708313 0.651125 -0.000000 -0.000001 -0.000000 0.638045 -2.843526 -18.867696 -6.316916 -18.181661 -56.123658 0.000004 -18.365038 0.000003 -0.000000 0.000000 0.000002 1.049124 -2.601968 18.126905 9.199680 -6.171393 65.014713 0.000025 9.144054 -0.000011 -0.000003 -0.000000 0.000000 -1.032071 4.890346 -5.963268 22.670897 -9.543419 1.330397 -13.677324 -2.387984 10.625963 -4.677203 -0.000017 -0.000003 0.000000 -0.000000 -0.000000 -22.509657 -4.694595 -4.658026 36.631981 -5.350106 -2.609756 -2.433373 -0.424958 6.801703 -2.283123 -0.000001 -0.000001 -0.000000 0.000001 0.000000 
15.874762 95.261330 85.346878 -3.389109 26.665952 -0.458659 5.435832 -2.138135 -0.197298 0.383125 -0.571679 0.103855 0.384492 -0.572741 0.105613 -1.810605 0.739150 0.591691 -1.810661 0.741572 0.588162 0.000000 -0.000003 -0.000000 0.581177 -3.541752 -18.891808 -8.627707 -20.618220 -54.399984 0.000000 -21.771952 -0.000004 0.000000 -0.000002 0.000000 1.042038 -2.740684 17.808994 11.408978 -7.924858 66.346094 0.000014 7.722285 0.000004 -0.000000 -0.000001 0.000000 1.206153 5.312169 -5.717882 22.998297 -9.935581 1.277835 -16.461085 -4.276996 10.654445 -5.560554 0.000005 0.000003 0.000000 -0.000001 -0.000000 -22.749028 -4.769464 -5.605129 22.543316 -7.489386 -3.283891 -0.016226 -0.561722 7.361374 -2.046347 -0.000001 -0.000003 0.000000 0.000000 0.000000 
16.941359 94.509155 89.077103 -2.529785 27.944520 0.046552 4.861649 -2.365713 -0.689717 0.382714 -0.620709 0.018370 0.385527 -0.619497 0.018653 -1.927816 0.754931 0.547409 -1.928036 0.755964 0.544366 -0.000000 -0.000001 0.000000 0.542807 -4.011336 -18.887167 -11.058952 -22.914248 -52.933140 -0.000000 -24.279128 0.000018 -0.000001 -0.000001 -0.000002 1.055101 -2.966593 17.735008 13.129566 -9.359044 67.167056 -0.000004 6.384815 0.000013 -0.000000 -0.000001 -0.000001 2.948921 5.395235 -5.762660 23.743331 -9.977148 1.162491 -19.482290 -5.938565 10.581967 -5.501076 0.000003 -0.000002 0.000000 -0.000001 -0.000000 -22.894596 -4.993538 -6.806612 8.566869 -7.627866 -3.734710 5.687364 -1.478298 7.217144 -2.674545 -0.000003 -0.000001 0.000001 0.000000 -0.000000 
18.172239 93.295204 93.131081 -1.770547 28.921692 0.533075 3.905412 -2.406817 -1.200928 0.582629 -0.616851 0.023375 0.587349 -0.613648 0.019533 -2.014244 0.768957 0.514373 -2.014661 0.769590 0.511683 0.000000 0.000001 -0.000000 0.525231 -4.215334 -18.997690 -13.709433 -24.840111 -51.967098 -0.000018 -25.389116 -0.000038 -0.000000 -0.000002 -0.000001 1.062257 -3.068593 17.716078 14.568505 -10.469049 67.482358 0.000009 5.489829 0.000009 0.000000 -0.000001 -0.000000 4.351604 5.476656 -5.691124 26.003889 -9.886838 1.099735 -23.379263 -7.402224 10.271345 -6.072234 -0.000002 0.000001 -0.000000 -0.000002 -0.000000 -25.514238 -5.568237 -8.562992 1.743623 -7.058187 -2.823388 0.049981 -1.112396 8.739937 -3.162561 0.000009 -0.000002 -0.000001 0.000001 0.000002 
19.415045 92.640167 97.165321 -1.506364 29.818280 0.784273 3.662005 -2.553692 -1.163355 0.618756 -0.660812 0.055390 0.619954 -0.657854 0.050440 -2.029430 0.805954 0.517020 -2.029875 0.806405 0.514347 -0.000000 -0.000001 -0.000000 0.513980 -4.346959 -19.027647 -16.328983 -25.820024 -51.899387 -0.000008 -25.376659 0.000008 -0.000002 0.000001 0.000002 1.046008 -2.899716 17.639575 15.826872 -11.439723 67.443125 -0.000007 5.019623 0.000025 0.000000 0.000001 0.000001 7.483568 5.639804 -5.200396 25.077215 -9.657376 1.246082 -24.767442 -8.778252 9.182892 -7.692518 -0.000003 -0.000004 0.000000 0.000001 0.000000 -29.319837 -6.297956 -10.404704 2.082293 -2.749086 -0.384315 -4.293268 -0.866423 10.210616 -4.689973 0.000006 0.000014 -0.000000 -0.000001 -0.000001 
20.587990 92.040588 101.354065 -1.488188 30.672641 0.790171 3.731430 -2.851064 -0.973482 0.624617 -0.748969 0.117272 0.623710 -0.747237 0.112008 -2.064516 0.854128 0.596729 -2.064681 0.854839 0.594288 -0.000000 -0.000001 0.000000 0.497306 -4.580375 -18.779211 -18.362231 -25.666712 -52.510067 -0.000004 -24.963488 -0.000010 -0.000000 0.000001 -0.000000 1.042677 -2.812151 17.672039 16.551396 -12.012409 66.932193 -0.000003 4.807160 -0.000009 0.000003 0.000001 0.000001 10.609428 5.479530 -4.592113 24.544058 -9.352711 2.071422 -25.681914 -9.286893 8.138792 -10.789202 -0.000003 0.000001 0.000000 0.000000 0.000000 -30.270818 -5.723679 -10.367312 2.491950 2.588452 -0.215351 -4.621588 -0.902690 9.907750 -5.679502 0.000006 -0.000000 -0.000002 0.000003 0.000000 
21.799145 91.548813 105.872826 -1.902140 31.670327 0.645541 3.999306 -3.546259 -0.545757 0.612311 -0.954122 0.197465 0.616572 -0.954192 0.194032 -2.071432 0.938184 0.699409 -2.070905 0.939483 0.697752 -0.000000 0.000001 -0.000000 0.478034 -4.863610 -18.508486 -19.113292 -24.664950 -52.910873 -0.000006 -24.494371 0.000007 0.000001 0.000001 -0.000002 1.053868 -2.826935 17.832540 16.689931 -11.813488 66.005152 0.000012 4.920511 0.000004 -0.000000 0.000001 0.000001 13.906455 5.358026 -3.638971 24.486445 -8.915015 3.392751 -25.596728 -9.421051 7.014244 -15.984041 -0.000004 -0.000000 0.000000 -0.000001 -0.000000 -28.589415 -5.783725 -9.734308 2.679640 5.493536 0.069861 -0.024293 -0.264051 8.870736 -6.760913 0.000009 0.000002 -0.000003 -0.000001 -0.000000 
23.128445 91.504494 110.693047 -2.887335 33.505732 0.435089 4.450705 -4.990013 0.311955 0.509035 -1.378236 0.330349 0.511764 -1.380194 0.331161 -1.964587 1.069608 0.755609 -1.962727 1.071950 0.754889 -0.000000 0.000000 -0.000000 0.472955 -4.896824 -18.678310 -18.147015 -23.999584 -52.747348 -0.000011 -23.458331 -0.000010 -0.000000 0.000000 -0.000003 1.076700 -3.010459 17.965824 16.743408 -11.515685 64.949628 0.000014 5.356485 0.000016 -0.000001 -0.000001 -0.000000 17.661874 5.829265 -1.855754 23.811107 -8.295508 4.900391 -23.116186 -10.159534 5.592913 -21.046495 -0.000006 0.000001 0.000000 -0.000001 -0.000000 -25.188674 -5.982505 -8.635774 2.825063 5.857154 -0.199259 5.971046 0.471472 8.879298 -8.250645 -0.000006 -0.000001 0.000000 -0.000000 -0.000000 
24.509958 91.855530 115.548035 -3.654270 35.894136 0.209587 4.654890 -6.361797 1.073553 0.242865 -1.779777 0.418799 0.243433 -1.782568 0.421570 -1.842132 1.132157 0.808556 -1.838681 1.136185 0.807980 -0.000000 0.000001 -0.000000 0.470369 -4.889672 -18.897272 -16.349356 -23.602069 -52.937900 -0.000008 -21.042054 -0.000010 0.000000 0.000001 -0.000001 1.151764 -3.624304 18.367601 16.746311 -11.652343 63.803529 -0.000008 5.703046 0.000018 0.000001 0.000001 0.000001 19.197613 5.835457 -0.038380 25.731344 -7.060770 6.833594 -18.104465 -10.030463 4.223168 -27.750685 0.000003 0.000003 0.000000 0.000001 0.000000 -21.494937 -5.926319 -7.586639 2.830207 3.662010 -1.149981 10.733227 1.078599 9.940378 -8.258112 -0.000003 -0.000004 0.000001 -0.000002 -0.000001 
25.907625 92.043938 120.331787 -3.718183 37.564418 -0.410616 4.333724 -6.730121 1.627093 0.065483 -1.892092 0.503373 0.064045 -1.896250 0.502046 -1.836125 1.090616 0.868888 -1.831563 1.096196 0.868645 -0.000000 -0.000001 0.000000 0.463545 -5.005230 -18.717051 -15.141621 -22.515958 -54.210033 0.000013 -17.512446 0.000019 -0.000002 0.000001 -0.000002 1.238748 -4.213883 18.895686 15.860365 -11.595669 62.775832 0.000003 5.700326 -0.000023 -0.000000 0.000000 0.000000 17.055500 5.439496 1.143087 32.736393 -6.430358 8.964002 -9.818971 -7.465099 3.788320 -36.870249 -0.027145 0.212401 0.000000 -0.000003 0.000000 -22.650106 -6.513407 -7.367755 11.517553 2.902454 -0.109840 8.975629 0.663130 7.393699 -6.541711 0.000021 0.000000 0.000001 -0.000002 -0.000000 
27.269678 92.407600 124.767662 -3.895954 37.958629 -1.234240 4.364704 -6.171236 2.410931 0.043469 -1.749907 0.656977 0.038096 -1.756841 0.655278 -1.890488 1.038495 0.873872 -1.886091 1.044586 0.873624 -0.000000 -0.000002 -0.000000 0.471823 -4.917457 -18.631636 -14.365884 -21.047962 -55.755852 0.000003 -13.998359 0.000013 -0.000000 -0.000002 0.000001 1.224020 -3.946680 18.993194 14.084755 -10.626494 62.178101 0.000002 5.583137 0.000006 -0.000001 0.000000 0.000002 13.333239 5.114698 2.674128 39.633303 -8.467917 8.591868 6.715868 -2.910645 2.707148 -55.337322 -1.275371 1.960834 0.000000 0.000001 0.000000 -21.970605 -7.069934 -6.281330 16.655590 3.035465 0.941037 6.946931 0.507413 5.685671 -5.115273 -0.000019 -0.000002 -0.000000 0.000001 0.000001 
28.652596 92.986481 128.727188 -4.702553 37.664709 -1.456224 4.996313 -5.066111 3.082934 0.138091 -1.462133 0.759063 0.130715 -1.471541 0.759608 -1.887728 0.976439 0.857741 -1.884047 0.983409 0.856326 -0.000000 -0.000003 -0.000000 0.485372 -4.726107 -18.765654 -13.317989 -19.625131 -56.906028 -0.000008 -10.854622 0.000014 0.000000 -0.000000 0.000000 1.134256 -2.941578 18.923652 12.067024 -8.500223 61.689196 -0.000003 5.613944 -0.000005 -0.000000 -0.000001 -0.000000 8.828889 4.293996 4.586364 45.498766 -5.513066 6.256528 22.096067 -0.728466 -2.683030 -60.260717 -1.934030 1.578531 -0.000001 0.000002 -0.000000 -20.251243 -6.725845 -4.324520 20.758540 2.686088 0.517830 3.363122 0.249598 3.984875 -4.873394 -0.000042 0.000004 -0.000000 -0.000003 -0.000000 
30.124899 93.848045 132.342407 -5.382622 37.210365 -1.048301 5.465843 -3.611903 3.091140 0.250131 -1.061715 0.731814 0.244344 -1.071494 0.734109 -1.820059 0.872080 0.831671 -1.817566 0.879241 0.829243 -0.000000 0.000000 -0.000000 0.496552 -4.555230 -18.998897 -12.077024 -18.266658 -57.839264 -0.000006 -8.149072 0.000012 0.000002 -0.000001 0.000001 1.042752 -1.930309 18.815696 9.793136 -5.245284 60.993637 0.000021 5.852723 0.000008 -0.000000 -0.000001 -0.000001 3.029450 3.804084 4.909578 54.941140 1.860685 4.202263 21.446497 -0.511046 -1.842735 -35.548399 3.697775 -5.622451 -0.000001 0.000002 -0.000002 -17.480828 -6.991204 -3.426638 22.162231 2.922593 0.401872 -0.227558 0.099705 2.619614 -4.883394 0.000003 0.000000 0.000000 0.000004 0.000001 
